<svg width="732.517709214608" height="200" viewBox="-8 8 732.517709214608 200" xmlns="http://www.w3.org/2000/svg"><rect x="20.0" y="40" width="40" height="140" rx="20.0" ry="20.0" fill="#141414"/><rect x="82.0" y="100" width="40" height="80" rx="20.0" ry="20.0" fill="#141414"/><rect x="144.0" y="40" width="40" height="140" rx="20.0" ry="20.0" fill="#141414"/><circle cx="102" cy="58" r="22" fill="#FF5A36"/><path d="M339.31 98.85 Q354.04 98.85 363.06 107.87 Q372.09 116.90 372.09 133.07 L372.09 180.00 L351.87 180.00 L351.87 135.83 Q351.87 126.44 347.09 121.46 Q342.33 116.47 334.09 116.47 Q325.88 116.47 321.03 121.46 Q316.20 126.44 316.20 135.83 L316.20 180.00 L295.99 180.00 L295.99 135.83 Q295.99 126.44 291.21 121.46 Q286.45 116.47 278.23 116.47 Q269.84 116.47 265.01 121.46 Q260.19 126.44 260.19 135.83 L260.19 180.00 L239.97 180.00 L239.97 100.00 L260.19 100.00 L260.19 109.68 Q264.07 104.62 270.20 101.74 Q276.34 98.85 283.72 98.85 Q293.10 98.85 300.46 102.82 Q307.83 106.79 311.87 114.17 Q315.78 107.22 323.20 103.05 Q330.64 98.85 339.31 98.85 Z M465.65 138.26 Q465.65 142.59 465.06 146.07 L406.59 146.07 Q407.31 154.73 412.66 159.65 Q418.00 164.55 425.79 164.55 Q437.04 164.55 441.83 154.87 L463.62 154.87 Q460.15 166.42 450.33 173.86 Q440.52 181.31 426.21 181.31 Q414.66 181.31 405.50 176.19 Q396.34 171.04 391.20 161.66 Q386.08 152.27 386.08 140.00 Q386.08 127.59 391.13 118.21 Q396.19 108.82 405.28 103.77 Q414.39 98.71 426.21 98.71 Q437.63 98.71 446.65 103.63 Q455.68 108.53 460.66 117.55 Q465.65 126.58 465.65 138.26 Z M444.71 132.49 Q444.56 124.70 439.07 120.01 Q433.59 115.32 425.65 115.32 Q418.14 115.32 413.02 119.88 Q407.90 124.41 406.72 132.49 L444.71 132.49 Z M475.17 139.71 Q475.17 127.59 479.99 118.21 Q484.84 108.82 493.21 103.77 Q501.58 98.71 511.85 98.71 Q519.63 98.71 526.72 102.12 Q533.80 105.50 537.98 111.12 L537.98 73.15 L558.48 73.15 L558.48 180.00 L537.98 180.00 L537.98 168.16 Q534.23 174.09 527.44 177.70 Q520.65 181.31 511.69 181.31 Q501.58 181.31 493.21 176.12 Q484.84 170.91 479.99 161.46 Q475.17 151.98 475.17 139.71 Z M538.13 140.00 Q538.13 132.65 535.25 127.39 Q532.36 122.11 527.44 119.29 Q522.52 116.47 516.90 116.47 Q511.26 116.47 506.50 119.22 Q501.74 121.95 498.76 127.23 Q495.81 132.49 495.81 139.71 Q495.81 146.93 498.76 152.34 Q501.74 157.76 506.57 160.64 Q511.42 163.53 516.90 163.53 Q522.52 163.53 527.44 160.73 Q532.36 157.91 535.25 152.66 Q538.13 147.38 538.13 140.00 Z M588.52 90.48 Q583.17 90.48 579.63 87.10 Q576.11 83.69 576.11 78.64 Q576.11 73.58 579.63 70.20 Q583.17 66.79 588.52 66.79 Q593.86 66.79 597.38 70.20 Q600.92 73.58 600.92 78.64 Q600.92 83.69 597.38 87.10 Q593.86 90.48 588.52 90.48 Z M598.49 100.00 L598.49 180.00 L578.27 180.00 L578.27 100.00 L598.49 100.00 Z M613.20 139.71 Q613.20 127.59 618.03 118.21 Q622.88 108.82 631.18 103.77 Q639.48 98.71 649.73 98.71 Q658.68 98.71 665.38 102.32 Q672.11 105.93 676.17 111.42 L676.17 100.00 L696.52 100.00 L696.52 180.00 L676.17 180.00 L676.17 168.31 Q672.27 173.93 665.41 177.63 Q658.55 181.31 649.59 181.31 Q639.48 181.31 631.18 176.12 Q622.88 170.91 618.03 161.46 Q613.20 151.98 613.20 139.71 Z M676.17 140.00 Q676.17 132.65 673.28 127.39 Q670.39 122.11 665.47 119.29 Q660.56 116.47 654.94 116.47 Q649.30 116.47 644.54 119.22 Q639.78 121.95 636.80 127.23 Q633.84 132.49 633.84 139.71 Q633.84 146.93 636.80 152.34 Q639.78 157.76 644.61 160.64 Q649.46 163.53 654.94 163.53 Q660.56 163.53 665.47 160.73 Q670.39 157.91 673.28 152.66 Q676.17 147.38 676.17 140.00 Z" fill="#141414" fill-rule="nonzero"/></svg>